<?xml version="1.0" encoding="UTF-8"?>
<svg version="1.1" xmlns="http://www.w3.org/2000/svg" width="182" height="182">
<path d="M0 0 C60.06 0 120.12 0 182 0 C182 60.06 182 120.12 182 182 C121.94 182 61.88 182 0 182 C0 121.94 0 61.88 0 0 Z " fill="#281300" transform="translate(0,0)"/>
<path d="M0 0 C60.06 0 120.12 0 182 0 C182 60.06 182 120.12 182 182 C121.94 182 61.88 182 0 182 C0 121.94 0 61.88 0 0 Z M7 9 C7 62.79 7 116.58 7 172 C62.44 172 117.88 172 175 172 C175 118.21 175 64.42 175 9 C119.56 9 64.12 9 7 9 Z " fill="#F17105" transform="translate(0,0)"/>
<path d="M0 0 C5.61 0 11.22 0 17 0 C19 6 19 6 19 10 C19.66 10 20.32 10 21 10 C22.97836583 16.7887071 24.923237 23.55782707 26.5625 30.4375 C27.3463733 33.65773626 28.16821772 36.38549895 29.5 39.4375 C31.30640528 43.72771254 32.18973506 47.9984438 33.1875 52.53515625 C35.26085913 61.37683678 38.27944389 69.97101979 41.265625 78.5390625 C42 81 42 81 42 84 C37.05 84 32.1 84 27 84 C26.566875 82.040625 26.13375 80.08125 25.6875 78.0625 C24.56375457 73.16082945 23.26100482 68.43426459 21.55078125 63.70703125 C21 62 21 62 21 60 C12.75 60 4.5 60 -4 60 C-4.66 63.63 -5.32 67.26 -6 71 C-6.94505672 75.34812792 -7.97556717 79.66944303 -9 84 C-13.62 84 -18.24 84 -23 84 C-21.56808123 78.67008013 -20.10716429 73.35141321 -18.5703125 68.05078125 C-15.30010941 56.9070559 -15.30010941 56.9070559 -12.5625 45.625 C-10.98665467 38.39130034 -8.73141568 31.36418086 -6.51196289 24.30712891 C-4.95558648 19.3210943 -3.5434045 14.37926206 -2.51196289 9.25683594 C-1.80464904 6.13885345 -0.87833924 3.07418735 0 0 Z " fill="#F67907" transform="translate(66,42)"/>
<path d="M0 0 C60.06 0 120.12 0 182 0 C182 0.66 182 1.32 182 2 C173.37515053 2.15495872 164.75012875 2.29905247 156.125 2.4375 C155.09553127 2.45403185 155.09553127 2.45403185 154.0452652 2.47089767 C103.36734463 3.2789363 52.68197379 3.58064561 2 4 C2 61.09 2 118.18 2 177 C61.4 177.33 120.8 177.66 182 178 C182 179.32 182 180.64 182 182 C121.94 182 61.88 182 0 182 C0 121.94 0 61.88 0 0 Z " fill="#EB9B4E" transform="translate(0,0)"/>
<path d="M0 0 C0.91007813 0.10183594 1.82015625 0.20367187 2.7578125 0.30859375 C3.45648438 0.39238281 4.15515625 0.47617188 4.875 0.5625 C4.875 1.2225 4.875 1.8825 4.875 2.5625 C5.70382911 2.56157821 6.53265821 2.56065641 7.38660336 2.55970669 C27.52392234 2.53765325 47.66123926 2.52108933 67.79856777 2.51068783 C77.53669607 2.50552446 87.27481632 2.498481 97.01293945 2.48706055 C105.49749493 2.47711494 113.98204458 2.47064687 122.46660572 2.46841151 C126.9619866 2.46710419 131.45735081 2.46401702 135.95272636 2.45676994 C140.17891046 2.45001167 144.40507093 2.44788264 148.63125992 2.44939232 C150.18695898 2.4491159 151.74265879 2.44710964 153.2983532 2.44329453 C155.41311934 2.43836027 157.52779487 2.4395007 159.64256287 2.44224548 C160.82891044 2.44132369 162.01525801 2.4404019 163.2375555 2.43945217 C165.875 2.5625 165.875 2.5625 166.875 3.5625 C166.97190407 5.68876798 166.99686822 7.81831819 166.99525452 9.9467926 C166.99653615 10.95875345 166.99653615 10.95875345 166.99784368 11.99115795 C166.99950039 14.26830162 166.99397404 16.5453728 166.98852539 18.82250977 C166.98824353 20.44825234 166.98840122 22.07399505 166.9889679 23.69973755 C166.98925593 28.12723413 166.98335827 32.55470387 166.97639394 36.98219419 C166.97016136 41.60400842 166.96955668 46.2258232 166.96836853 50.84764099 C166.96525493 59.60598237 166.95704115 68.36431133 166.94701904 77.12264723 C166.9358588 87.09104013 166.93034768 97.05943361 166.92532361 107.0278312 C166.91485856 127.53939441 166.89725857 148.05094642 166.875 168.5625 C163.99624949 170.00187525 161.5262671 169.68849481 158.3079834 169.68948364 C157.28460696 169.69182363 157.28460696 169.69182363 156.24055624 169.69421089 C153.94355229 169.6982147 151.64661387 169.69503363 149.34960938 169.69189453 C147.70725974 169.69324885 146.0649104 169.69502895 144.42256165 169.69720459 C139.95367251 169.70177533 135.48480638 169.69999083 131.01591682 169.6968255 C126.34699566 169.69430006 121.67807651 169.69663996 117.00915527 169.69821167 C109.16739548 169.70003282 101.32564509 169.69762847 93.48388672 169.69287109 C84.40777822 169.68742858 75.33169219 169.68919127 66.25558424 169.6946975 C58.47383414 169.69923017 50.69209082 169.69987842 42.91033983 169.69725883 C38.25790571 169.69569691 33.60548216 169.69549999 28.95304871 169.69879532 C24.57991162 169.70167626 20.2068036 169.69969421 15.83366966 169.69390106 C14.22517635 169.69257467 12.61668061 169.69296555 11.00818825 169.69516373 C8.81943093 169.69787993 6.63076785 169.6944883 4.4420166 169.68948364 C2.6014053 169.6889181 2.6014053 169.6889181 0.72360992 169.68834114 C-2.125 169.5625 -2.125 169.5625 -4.125 168.5625 C-4.455 117.0825 -4.785 65.6025 -5.125 12.5625 C-5.785 12.5625 -6.445 12.5625 -7.125 12.5625 C-7.125 39.6225 -7.125 66.6825 -7.125 94.5625 C-7.455 94.5625 -7.785 94.5625 -8.125 94.5625 C-8.14818207 83.19235351 -8.16594502 71.82221266 -8.17681217 60.45204735 C-8.18202815 55.17228739 -8.1891025 49.89254361 -8.20043945 44.61279297 C-8.21131395 39.51645372 -8.21728653 34.42013002 -8.21987724 29.32378006 C-8.22172326 27.38055807 -8.22532805 25.43733691 -8.23073006 23.49412155 C-8.238001 20.76998817 -8.23898838 18.04591888 -8.23852539 15.32177734 C-8.2439183 14.11983734 -8.2439183 14.11983734 -8.24942017 12.89361572 C-8.24170611 8.69225349 -8.13379503 4.66857851 -7.125 0.5625 C-4.50184968 -0.74907516 -2.89466564 -0.33399988 0 0 Z M-2.125 4.5625 C-2.125 58.3525 -2.125 112.1425 -2.125 167.5625 C53.315 167.5625 108.755 167.5625 165.875 167.5625 C165.875 113.7725 165.875 59.9825 165.875 4.5625 C110.435 4.5625 54.995 4.5625 -2.125 4.5625 Z " fill="#D67820" transform="translate(9.125,4.4375)"/>
<path d="M0 0 C4.62 0 9.24 0 14 0 C14 20.46 14 40.92 14 62 C9.38 62 4.76 62 0 62 C0 41.54 0 21.08 0 0 Z " fill="#F37202" transform="translate(119,64)"/>
<path d="M0 0 C1.2748397 0.00092179 2.54967939 0.00184359 3.8631506 0.00279331 C4.57045958 0.00193889 5.27776856 0.00108446 6.00651115 0.00020415 C8.39420988 -0.00145272 10.78183949 0.00407406 13.16953182 0.00952244 C14.87409113 0.00980429 16.57865056 0.00964661 18.2832098 0.00907993 C22.92557505 0.00879189 27.5679147 0.01468976 32.21027398 0.02165389 C37.05630601 0.02788624 41.90233857 0.02849113 46.74837399 0.0296793 C55.93170669 0.03279297 65.11502756 0.04100683 74.29835504 0.05102879 C84.75041476 0.06218883 95.20247504 0.0677001 105.65453923 0.07272422 C127.16141512 0.08318941 148.66828035 0.10078954 170.17514706 0.12304783 C170.17514706 1.44304783 170.17514706 2.76304783 170.17514706 4.12304783 C117.04514706 4.12304783 63.91514706 4.12304783 9.17514706 4.12304783 C9.17514706 3.46304783 9.17514706 2.80304783 9.17514706 2.12304783 C7.19514706 2.45304783 5.21514706 2.78304783 3.17514706 3.12304783 C3.17514706 2.46304783 3.17514706 1.80304783 3.17514706 1.12304783 C1.19514706 1.45304783 -0.78485294 1.78304783 -2.82485294 2.12304783 C-2.82485294 4.10304783 -2.82485294 6.08304783 -2.82485294 8.12304783 C-3.15485294 8.12304783 -3.48485294 8.12304783 -3.82485294 8.12304783 C-3.86727018 5.79010007 -3.86578232 3.45602216 -3.82485294 1.12304783 C-2.82485294 0.12304783 -2.82485294 0.12304783 0 0 Z " fill="#F9810A" transform="translate(4.82485294342041,2.8769521713256836)"/>
<path d="M0 0 C2 0.3125 2 0.3125 4 1 C5.41437388 3.82874776 5.12271531 6.18811523 5.12025452 9.35269165 C5.12110894 10.01185243 5.12196337 10.67101321 5.12284368 11.35014856 C5.12449676 13.56890884 5.11897994 15.78759428 5.11352539 18.00634766 C5.11324346 19.59282937 5.11340138 21.17931121 5.1139679 22.76579285 C5.11425562 27.08166383 5.10836285 31.3975072 5.10139394 35.71337175 C5.09515632 40.22040194 5.09455628 44.72743271 5.09336853 49.23446655 C5.09025642 57.77319579 5.08204465 66.31191227 5.07201904 74.85063589 C5.06085417 84.56996356 5.05534651 94.28929183 5.05032361 104.00862432 C5.03986194 124.00575667 5.02226482 144.00287753 5 164 C4.01 164.33 3.02 164.66 2 165 C0.94581666 156.72052354 0.83571478 148.49476551 0.81054688 140.15869141 C0.80258845 138.68589042 0.79419927 137.21309171 0.78541565 135.74029541 C0.76747281 132.58872779 0.75241788 129.4371648 0.73963928 126.28557205 C0.7192938 121.30170725 0.69166325 116.31789866 0.66296387 111.33407593 C0.59800515 99.86458318 0.54231003 88.39504915 0.48697662 76.92550659 C0.43609757 66.3918448 0.38324622 55.85820375 0.32245111 45.3245939 C0.29413104 40.36986324 0.2705268 35.41513931 0.25052643 30.46036839 C0.23714054 27.38346362 0.21972967 24.30659122 0.20121574 21.22971344 C0.19346167 19.80266767 0.18739122 18.37561163 0.18312263 16.94855118 C0.17707144 15.00178393 0.16445069 13.05504039 0.15148926 11.10830688 C0.14633553 10.01883066 0.14118179 8.92935444 0.13587189 7.80686378 C0.01759455 5.36347102 -0.40132732 3.35077705 -1 1 C-0.67 0.67 -0.34 0.34 0 0 Z " fill="#F37404" transform="translate(175,3)"/>
<path d="M0 0 C0.33 1.32 0.66 2.64 1 4 C-59.06 4 -119.12 4 -181 4 C-181 3.01 -181 2.02 -181 1 C-121.27 0.67 -61.54 0.34 0 0 Z " fill="#A57D5D" transform="translate(181,178)"/>
<path d="M0 0 C0.66 0 1.32 0 2 0 C2.93539568 17.70011279 3.13790272 35.36707504 3.10139394 53.08809471 C3.09501658 56.72348198 3.09454551 60.35887069 3.09336853 63.9942627 C3.09029662 70.83583622 3.08214089 77.67739319 3.07201904 84.51895952 C3.06072697 92.32589485 3.05531493 100.1328311 3.05032361 107.93977261 C3.03995332 123.95985789 3.02243676 139.97992679 3 156 C2.01 156 1.02 156 0 156 C-1.3164251 153.36714979 -1.12711008 151.414626 -1.12939453 148.46484375 C-1.13250641 147.28523071 -1.13561829 146.10561768 -1.13882446 144.89025879 C-1.13684052 143.58584839 -1.13485657 142.28143799 -1.1328125 140.9375 C-1.13383058 139.54927545 -1.13517143 138.1610511 -1.1368103 136.77282715 C-1.13954418 132.97651676 -1.13497902 129.18024644 -1.12857056 125.38394165 C-1.1250088 123.00587848 -1.12338171 120.62782137 -1.12231445 118.24975586 C-1.10046958 78.82997022 -0.56926976 39.41506697 0 0 Z " fill="#F97C07" transform="translate(2,17)"/>
<path d="M0 0 C21.78 0 43.56 0 66 0 C66 58.08 66 116.16 66 176 C64.68 175.67 63.36 175.34 62 175 C62.66 175 63.32 175 64 175 C63.89287817 152.73887752 63.78013808 130.47778985 63.66066074 108.21673012 C63.60532048 97.88115202 63.55183717 87.54557047 63.50268555 77.20996094 C63.45985354 68.20422311 63.41357806 59.19851078 63.36312145 50.19281232 C63.33651258 45.42187065 63.31165931 40.65093405 63.29092598 35.87996292 C63.27137501 31.39356539 63.24723589 26.90721643 63.21950912 22.4208622 C63.21013051 20.77045255 63.20245816 19.12003223 63.19658089 17.4696064 C63.18833343 15.22379404 63.1740607 12.97810002 63.15821838 10.73233032 C63.15176583 9.47316111 63.14531328 8.21399189 63.1386652 6.91666603 C63.199943 4.06302447 63.199943 4.06302447 62 2 C41.54 1.67 21.08 1.34 0 1 C0 0.67 0 0.34 0 0 Z " fill="#DA7825" transform="translate(116,2)"/>
<path d="M0 0 C4.62 0 9.24 0 14 0 C14 20.46 14 40.92 14 62 C9.38 62 4.76 62 0 62 C0 41.54 0 21.08 0 0 Z M2 2 C2 21.14 2 40.28 2 60 C4.97 60 7.94 60 11 60 C11 41.52 11 23.04 11 4 C11.66 4 12.32 4 13 4 C13 3.34 13 2.68 13 2 C9.37 2 5.74 2 2 2 Z " fill="#D36D13" transform="translate(119,64)"/>
<path d="M0 0 C0.66 0.33 1.32 0.66 2 1 C2.71756654 3.56575262 3.32386899 6.08534225 3.875 8.6875 C5.4234383 15.66361422 7.22101887 22.49041323 9.265625 29.33984375 C10 32 10 32 10 34 C4.06 34 -1.88 34 -8 34 C-5.82301584 22.48977525 -3.48531391 11.19749789 0 0 Z " fill="#2E1302" transform="translate(74,56)"/>
<path d="M0 0 C2.375 1.4375 2.375 1.4375 4 4 C4.54878729 7.10232814 4.57531548 9.90034108 4 13 C1.85198872 15.72632201 0.45735228 15.9221528 -2.9375 16.5 C-7.11411135 15.81810427 -8.50915752 14.36996335 -11 11 C-11.37688506 7.79647701 -11.44430855 5.88861709 -10 3 C-9.34 3 -8.68 3 -8 3 C-8 2.34 -8 1.68 -8 1 C-5.15916359 -0.42041821 -3.14522722 -0.31452272 0 0 Z " fill="#FA7804" transform="translate(129,39)"/>
<path d="M0 0 C8.58 0 17.16 0 26 0 C31.33333333 16 31.33333333 16 31 24 C34.63 24 38.26 24 42 24 C41.54625 22.741875 41.0925 21.48375 40.625 20.1875 C36.13668743 6.67981646 36.13668743 6.67981646 38 0 C38.98245973 3.39488938 39.96038333 6.79106929 40.9375 10.1875 C41.35418945 11.62706055 41.35418945 11.62706055 41.77929688 13.09570312 C42.18051758 14.49272461 42.18051758 14.49272461 42.58984375 15.91796875 C42.83597412 16.77156982 43.08210449 17.6251709 43.33569336 18.50463867 C43.99409133 20.97780504 44.49807908 23.49039541 45 26 C40.05 26 35.1 26 30 26 C29.3503125 23.0609375 29.3503125 23.0609375 28.6875 20.0625 C27.56375457 15.16082945 26.26100482 10.43426459 24.55078125 5.70703125 C24 4 24 4 24 2 C16.08 2 8.16 2 0 2 C0 1.34 0 0.68 0 0 Z " fill="#DC761A" transform="translate(63,100)"/>
<path d="M0 0 C2.375 1.4375 2.375 1.4375 4 4 C4.54878729 7.10232814 4.57531548 9.90034108 4 13 C1.85198872 15.72632201 0.45735228 15.9221528 -2.9375 16.5 C-7.11411135 15.81810427 -8.50915752 14.36996335 -11 11 C-11.37688506 7.79647701 -11.44430855 5.88861709 -10 3 C-9.34 3 -8.68 3 -8 3 C-8 2.34 -8 1.68 -8 1 C-5.15916359 -0.42041821 -3.14522722 -0.31452272 0 0 Z M-6 2 C-7.75056659 4.6649267 -7.75056659 4.6649267 -9 8 C-8.31357916 11.31470658 -8.31357916 11.31470658 -7 14 C-5.700625 13.855625 -4.40125 13.71125 -3.0625 13.5625 C-2.33160156 13.48128906 -1.60070312 13.40007813 -0.84765625 13.31640625 C1.01140229 13.18113386 1.01140229 13.18113386 2 12 C2.4384576 7.31877614 2.4384576 7.31877614 0.8125 3.0625 C-1.56041618 1.67148017 -3.29686424 1.78082683 -6 2 Z " fill="#DE7D1C" transform="translate(129,39)"/>
<path d="M0 0 C2.81256281 -0.02684312 5.62487241 -0.04676188 8.4375 -0.0625 C9.23994141 -0.07087891 10.04238281 -0.07925781 10.86914062 -0.08789062 C12.91295221 -0.0965143 14.95683902 -0.0522815 17 0 C18 1 18 1 18.0625 3.5625 C18.041875 4.366875 18.02125 5.17125 18 6 C17.34 4.68 16.68 3.36 16 2 C15.40832031 2.08378906 14.81664063 2.16757812 14.20703125 2.25390625 C9.90060543 2.80889424 6.24447356 3.23226652 2 2 C1.95101562 2.62648437 1.90203125 3.25296875 1.8515625 3.8984375 C1.77679688 4.71570312 1.70203125 5.53296875 1.625 6.375 C1.55539063 7.18710937 1.48578125 7.99921875 1.4140625 8.8359375 C1 11 1 11 -1 13 C-1.46006346 15.20250992 -1.46006346 15.20250992 -1.625 17.625 C-1.69976562 18.44226563 -1.77453125 19.25953125 -1.8515625 20.1015625 C-1.90054688 20.72804688 -1.94953125 21.35453125 -2 22 C-2.99 22.33 -3.98 22.66 -5 23 C-5.33 23.99 -5.66 24.98 -6 26 C-5.33857216 21.81095704 -4.5196822 17.6937579 -3.5625 13.5625 C-3.31628906 12.49128906 -3.07007813 11.42007813 -2.81640625 10.31640625 C-1.96229372 6.8468295 -1.00153813 3.42950934 0 0 Z " fill="#CA721B" transform="translate(66,42)"/>
<path d="M0 0 C0.33 0 0.66 0 1 0 C1 3.3 1 6.6 1 10 C1.99 9.67 2.98 9.34 4 9 C4 12.3 4 15.6 4 19 C1.69 19 -0.62 19 -3 19 C-2.67 17.68 -2.34 16.36 -2 15 C-1.34 15 -0.68 15 0 15 C0 10.05 0 5.1 0 0 Z " fill="#E86E04" transform="translate(176,158)"/>
<path d="M0 0 C1.74290793 2.61436189 2.45570513 4.12694857 3.25390625 7.0546875 C3.46853516 7.83457031 3.68316406 8.61445312 3.90429688 9.41796875 C4.23010742 10.63419922 4.23010742 10.63419922 4.5625 11.875 C4.78357422 12.67808594 5.00464844 13.48117188 5.23242188 14.30859375 C6.29429242 18.20318843 7.20660356 22.03301781 8 26 C3.05 26 -1.9 26 -7 26 C-7 25.67 -7 25.34 -7 25 C-3.04 25 0.92 25 5 25 C4.72285156 23.94941406 4.44570312 22.89882812 4.16015625 21.81640625 C2.27374249 14.54765599 0.53691783 7.51684956 0 0 Z " fill="#BB6416" transform="translate(100,100)"/>
<path d="M0 0 C2.48867691 4.47543578 3.07790609 8.99434733 4 14 C-1.94 14 -7.88 14 -14 14 C-13.67 13.34 -13.34 12.68 -13 12 C-12.06027344 12.01740234 -12.06027344 12.01740234 -11.1015625 12.03515625 C-9.87566406 12.04869141 -9.87566406 12.04869141 -8.625 12.0625 C-7.40683594 12.07990234 -7.40683594 12.07990234 -6.1640625 12.09765625 C-3.95062858 12.14466334 -3.95062858 12.14466334 -2 11 C-1.30906104 8.42048126 -1.30906104 8.42048126 -0.875 5.4375 C-0.70742187 4.42558594 -0.53984375 3.41367188 -0.3671875 2.37109375 C-0.24601562 1.58863281 -0.12484375 0.80617188 0 0 Z " fill="#592705" transform="translate(80,76)"/>
<path d="M0 0 C1.44148603 2.88297206 0.55304714 4.56115644 -0.21484375 7.6640625 C-0.48876953 8.78554687 -0.76269531 9.90703125 -1.04492188 11.0625 C-1.33947266 12.238125 -1.63402344 13.41375 -1.9375 14.625 C-2.22818359 15.80835937 -2.51886719 16.99171875 -2.81835938 18.2109375 C-3.53936013 21.14221925 -4.26683005 24.07174259 -5 27 C-5.33 27 -5.66 27 -6 27 C-5.67 21.72 -5.34 16.44 -5 11 C-4.34 11 -3.68 11 -3 11 C-3.309375 9.63875 -3.309375 9.63875 -3.625 8.25 C-4.01388867 4.87963154 -3.91293847 3.71838625 -2 1 C-1.34 0.67 -0.68 0.34 0 0 Z " fill="#DF801A" transform="translate(72,61)"/>
<path d="M0 0 C2.64590014 -0.02684679 5.29153096 -0.04676357 7.9375 -0.0625 C8.69224609 -0.07087891 9.44699219 -0.07925781 10.22460938 -0.08789062 C12.14994313 -0.09652441 14.07535581 -0.05224333 16 0 C17 1 17 1 17.0625 3.5625 C17.041875 4.366875 17.02125 5.17125 17 6 C16.34 4.68 15.68 3.36 15 2 C14.40832031 2.08378906 13.81664063 2.16757812 13.20703125 2.25390625 C8.90060543 2.80889424 5.24447356 3.23226652 1 2 C0.67 2.66 0.34 3.32 0 4 C0 2.68 0 1.36 0 0 Z " fill="#E3852D" transform="translate(67,42)"/>
<path d="M0 0 C1.5 1.25 1.5 1.25 3 3 C3 4.32 3 5.64 3 7 C3.66 7 4.32 7 5 7 C5 9.97 5 12.94 5 16 C5.66 16 6.32 16 7 16 C7.33 17.98 7.66 19.96 8 22 C7.34 22 6.68 22 6 22 C5.17977388 19.64828157 4.3687346 17.2940149 3.5625 14.9375 C3.21735352 13.95233398 3.21735352 13.95233398 2.86523438 12.94726562 C1.39565872 8.62373145 0.51353789 4.53920274 0 0 Z " fill="#4F1C00" transform="translate(101,101)"/>
<path d="M0 0 C0.33 0 0.66 0 1 0 C2.49203942 9.88476118 2.49203942 9.88476118 0 15 C-0.99 15.66 -1.98 16.32 -3 17 C-2.54775239 11.08507728 -1.8417395 5.64800112 0 0 Z " fill="#4C1E01" transform="translate(60,109)"/>
<path d="M0 0 C0.33 0.66 0.66 1.32 1 2 C-1.31 2.33 -3.62 2.66 -6 3 C-6.4021875 4.7015625 -6.4021875 4.7015625 -6.8125 6.4375 C-7.204375 7.613125 -7.59625 8.78875 -8 10 C-8.99 10.33 -9.98 10.66 -11 11 C-11.125 5.25 -11.125 5.25 -10 3 C-9.34 3 -8.68 3 -8 3 C-8 2.34 -8 1.68 -8 1 C-5.29120665 -0.35439668 -2.99066732 -0.06501451 0 0 Z " fill="#BB6716" transform="translate(129,39)"/>
<path d="M0 0 C8.25 0 16.5 0 25 0 C25 0.33 25 0.66 25 1 C23.68644531 1.04898438 22.37289062 1.09796875 21.01953125 1.1484375 C19.28383405 1.22349468 17.54815797 1.29904123 15.8125 1.375 C14.51602539 1.42140625 14.51602539 1.42140625 13.19335938 1.46875 C6.85434047 1.72231148 6.85434047 1.72231148 1 4 C0.34 4.99 -0.32 5.98 -1 7 C-0.67 4.69 -0.34 2.38 0 0 Z " fill="#5F2401" transform="translate(62,102)"/>
<path d="M0 0 C2.1519437 3.22791555 2.20086443 4.28400809 2 8 C1.34 8 0.68 8 0 8 C0 8.66 0 9.32 0 10 C3.63 10 7.26 10 11 10 C11 10.33 11 10.66 11 11 C6.38 11 1.76 11 -3 11 C-2.01 7.37 -1.02 3.74 0 0 Z " fill="#B76414" transform="translate(46,115)"/>
<path d="M0 0 C5.10204082 10.20408163 5.10204082 10.20408163 4.6875 13.4375 C4.460625 13.953125 4.23375 14.46875 4 15 C3.54625 14.505 3.0925 14.01 2.625 13.5 C1.12364481 11.77390663 1.12364481 11.77390663 -1 12 C-0.67 8.04 -0.34 4.08 0 0 Z " fill="#D46F15" transform="translate(92,74)"/>
<path d="M0 0 C1.32 1.32 2.64 2.64 4 4 C-1.61 4 -7.22 4 -13 4 C-13 3.34 -13 2.68 -13 2 C-12.14535156 1.93941406 -11.29070312 1.87882812 -10.41015625 1.81640625 C-8.75306641 1.69072266 -8.75306641 1.69072266 -7.0625 1.5625 C-5.96035156 1.48128906 -4.85820313 1.40007813 -3.72265625 1.31640625 C-1.08890097 1.29581916 -1.08890097 1.29581916 0 0 Z " fill="#4F1B00" transform="translate(79,38)"/>
<path d="M0 0 C0.66 0 1.32 0 2 0 C2.65003625 2.20709983 3.29484745 4.41573892 3.9375 6.625 C4.29714844 7.85476562 4.65679687 9.08453125 5.02734375 10.3515625 C5.88485972 13.56810836 6.51903985 16.70921999 7 20 C4.53635837 17.04775906 3.37027655 14.51471001 2.375 10.8125 C1.69429298 7.62672383 1.69429298 7.62672383 0 5 C-0.04063832 3.33382885 -0.042721 1.66611905 0 0 Z " fill="#C66E19" transform="translate(85,52)"/>
<path d="M0 0 C0.33 0 0.66 0 1 0 C1.42589023 5.53657294 -0.094753 9.89665983 -2 15 C-2.33 15 -2.66 15 -3 15 C-3.22174933 13.54364629 -3.42698698 12.08477044 -3.625 10.625 C-3.74101563 9.81289062 -3.85703125 9.00078125 -3.9765625 8.1640625 C-3.98429687 7.44992188 -3.99203125 6.73578125 -4 6 C-3.34 5.34 -2.68 4.68 -2 4 C-1.34 4.33 -0.68 4.66 0 5 C0 3.35 0 1.7 0 0 Z " fill="#3F1601" transform="translate(52,88)"/>
<path d="M0 0 C1.4049404 3.89060419 0.69513239 7.23092362 0.0625 11.25 C-0.13214844 12.51328125 -0.32679687 13.7765625 -0.52734375 15.078125 C-0.68332031 16.04234375 -0.83929688 17.0065625 -1 18 C-1.99 18.33 -2.98 18.66 -4 19 C-3.32036523 14.65825558 -2.44151215 10.40296481 -1.4375 6.125 C-1.16808594 4.97257812 -0.89867187 3.82015625 -0.62109375 2.6328125 C-0.41613281 1.76398438 -0.21117187 0.89515625 0 0 Z " fill="#BA6618" transform="translate(55,81)"/>
<path d="M0 0 C2 1 2 1 3.1875 4.3125 C3.90649268 7.57562063 4.20286847 8.99282882 3 12 C2.34 10.35 1.68 8.7 1 7 C0.01 8.32 -0.98 9.64 -2 11 C-1 3.57142857 -1 3.57142857 0 0 Z " fill="#5F2401" transform="translate(74,56)"/>
<path d="M0 0 C1.94566808 2.91850212 2.5152457 4.57622848 3.1875 7.9375 C3.36667969 8.79214844 3.54585938 9.64679688 3.73046875 10.52734375 C4.00123705 13.01134859 3.77059444 14.64449502 3 17 C2.67 14.36 2.34 11.72 2 9 C1.34 9 0.68 9 0 9 C0 6.03 0 3.06 0 0 Z " fill="#E2791D" transform="translate(97,91)"/>
<path d="M0 0 C0.66 0 1.32 0 2 0 C1.71715982 1.77226453 1.42339502 3.542788 1.125 5.3125 C0.96257813 6.29863281 0.80015625 7.28476563 0.6328125 8.30078125 C0 11 0 11 -2 14 C-2 11.03 -2 8.06 -2 5 C-1.34 5 -0.68 5 0 5 C0 3.35 0 1.7 0 0 Z " fill="#4A1900" transform="translate(47,104)"/>
<path d="M0 0 C0.99 0.99 1.98 1.98 3 3 C1.66666667 5.66666667 0.33333333 8.33333333 -1 11 C-2.60080151 6.99799622 -1.29279692 3.95443764 0 0 Z " fill="#D4741C" transform="translate(59,68)"/>
<path d="M0 0 C2.02350324 3.03525486 2.32124018 4.19426202 2.625 7.6875 C2.69976562 8.49574219 2.77453125 9.30398437 2.8515625 10.13671875 C2.90054688 10.75160156 2.94953125 11.36648437 3 12 C0.9375 10.5 0.9375 10.5 -1 8 C-1.05928384 5.17593353 -0.55954815 2.79774073 0 0 Z " fill="#672C03" transform="translate(90,113)"/>
<path d="M0 0 C0.99 0.33 1.98 0.66 3 1 C3 4.3 3 7.6 3 11 C2.34 11 1.68 11 1 11 C0.67 7.37 0.34 3.74 0 0 Z " fill="#3B1000" transform="translate(116,41)"/>
<path d="M0 0 C0.33 0 0.66 0 1 0 C1 1.65 1 3.3 1 5 C-0.32 5 -1.64 5 -3 5 C-3.33 3.68 -3.66 2.36 -4 1 C-2.68 1.33 -1.36 1.66 0 2 C0 1.34 0 0.68 0 0 Z " fill="#EC7E18" transform="translate(55,120)"/>
</svg>
